<svg version="1.2" xmlns="http://www.w3.org/2000/svg" viewBox="0 0 536 419" width="536" height="419">
	<title>paper-svg</title>
	<style>
		.s0 { fill: #000000 } 
	</style>
	<g id="Layer">
		<path id="Layer" fill-rule="evenodd" class="s0" d="m405.6 390.7q-14.8 11.9-32.9 10.1h-0.1q-64-6.1-124.3-25.7-119.6 30-159.5-40-2.1 0.7-4.6 0.7-46.9-1.5-58.6-37.9l-0.1-0.1q-10.4-30.9-6.7-61.5v-0.1q3.7-30.4 16.3-55.3v0.1q17.9-36.5 47.8-35.4 8.9-0.7 21 7.1 2.8-7.5 6.4-14.7v0.1q12.1-24.2 33.9-36 0.1-0.1 0.2-0.1 15.2-8.6 21.9-16.2l0.1-0.1q6-8.5 12.1-34.3 9.7-40.7 42.8-43.9h0.1q34.4-4.4 46.9 26.2 10.7 25.8 4.4 48.5l0.1-0.1q-5.3 20.4-15.3 37.3v-0.1q-0.4 0.7-0.8 1.4 138.8-33.1 157.8-34.6v0.1q26.2-2.4 40.8 5.8h-0.1q16.7 8.7 23.3 26.9 0.1 0.2 0.1 0.3 6.1 18.3-1.8 35.8l-0.1 0.2q-1.1 2.4-2.5 4.5 5.6 0.5 10.3 1.4h-0.2q32 5.1 41.6 29.3v-0.1q10.2 23.7-1.7 44l-0.1 0.1q-10.8 18.8-31.3 26.4l-0.2 0.1q-2.6 1-9.9 2.1 9.6 11.5 10.7 27 1.3 19.6-11.9 34.4-12.8 14.4-32.2 16h-0.1q-13.1 0.9-26.2 1.2 2.1 8.9 0.4 18.8-2.9 18.4-17.8 30.3zm-30.5-16.2q7.6 0.5 13.9-4.6 6.8-5.4 8.1-13.7v-0.1q1.4-7.8-2.9-13.8-0.1-0.2-0.1-0.3-48.7-0.4-111-7.1-5.4-0.6-8.9-4.9-3.5-4.3-2.9-9.7 0.6-5.5 4.9-8.9 4.3-3.5 9.8-2.9 63.5 6.8 112.5 6.9 1-0.1 1.9 0 10.2-0.1 19.8-0.2 13.5-0.4 27.1-1.4 8.6-0.7 14.3-7.1 5.7-6.4 5.1-15-0.6-8.5-7.1-14.2l-0.1-0.1q-6.5-5.5-15-4.8h-0.2q-7.2 0.3-141.7 2.5h-0.5q-5.4 0-9.4-3.7-3.9-3.8-4.1-9.3-0.2-5.4 3.6-9.4 3.6-4 9-4.3 0.3 0 0.5 0 167.4-7.9 182-12.5 11.4-4.3 17.5-14.8l-0.1 0.2q5-9.4 0.3-20.4v-0.1q-5.5-10.9-21.3-13.5h-0.2q-22-3.7-67.2 3.7-43.1 12.4-114.7 23.1-5.4 0.9-9.8-2.4-4.4-3.3-5.2-8.7-0.9-5.4 2.4-9.9 3.3-4.4 8.8-5.2 69.6-10.5 111.3-22.7 0.5-0.1 0.9-0.2 8.6-2.5 10.5-3.2 0.4 0 0.8-0.1 12.1-3.6 24.1-8l-0.1 0.2q7.3-2.8 10.8-9.9 0-0.1 0.1-0.2 3.4-7.7 0.8-15.8 0-0.1-0.1-0.3-3-8.1-10.5-12.1h-0.1q-9.3-4.5-25.9-3v0.1q-19.6 1.7-168.3 37.3 0.1 4.7 0.4 11.1v0.2q1.3 18.6-10.8 46.4h0.1q-12.1 28.7-47.9 46.1-5 2.4-10.2 0.6-5.2-1.8-7.6-6.7-2.4-5-0.6-10.2 1.9-5.2 6.8-7.6 25.8-12.6 35-32.9h0.1q9-20.7 8.5-34.4v-0.2q-0.9-17.4-0.4-23.8 0-0.8 0.2-1.5 0-0.4 0.2-0.8 2.2-13.2 12.2-30.3v-0.1q8.1-13.9 12.4-30.5l0.1-0.1q3.7-14.7-3.2-31.4-5.3-11.8-19-10h-0.1q-15.4 3-20.4 23.6-8.1 34.5-17.4 45.1l-0.1 0.1q-8.7 10.8-29.5 22.5l-0.2 0.1q-14.8 8.2-23.1 24.8v0.1q-9.3 18.2-11.9 39.3-0.7 5.5-5 8.9-4.4 3.4-9.9 2.7-5.4-0.7-8.8-5-3.4-4.4-2.7-9.9 0.3-2.9 0.8-5.8-8.5-7.2-13.6-8.2-14.5 1.2-24 20.6v0.1q-10.6 21-13.7 46.5-2.9 24.9 5.6 49.9l-0.1-0.1q6.5 16.4 27 19.4-0.5-1.8-1-3.6-1.6-5.3 1-10.1 2.7-4.8 8-6.4 5.2-1.5 10.1 1.1 4.8 2.6 6.3 7.9 25.8 81.7 143.4 50.9 3.8-1.1 7.6 0.2 59.1 19.8 122 25.9z"/>
		<g id="k">
			<path id="Layer" class="s0" d="m8.8 585.1q-1.6 0.8-3.3 1.2-1.8 0.5-3.7 0.5-5.6 0-8.9-3.2-3.4-3.2-3.4-8.6 0-5.4 3.4-8.6 3.3-3.2 8.9-3.2 1.9 0 3.7 0.5 1.7 0.4 3.3 1.2v4.7q-1.6-1.1-3.2-1.6-1.5-0.5-3.3-0.5-3.1 0-4.9 2-1.8 2-1.8 5.5 0 3.5 1.8 5.5 1.8 2 4.9 2 1.8 0 3.3-0.5 1.6-0.5 3.2-1.6z"/>
		</g>
		<g id="d">
			<path id="Layer" class="s0" d="m26.1 574q-0.7-0.4-1.4-0.5-0.7-0.2-1.5-0.2-2.1 0-3.2 1.3-1.1 1.4-1.1 3.9v7.8h-5.5v-17h5.5v2.8q1-1.7 2.4-2.4 1.3-0.8 3.3-0.8 0.2 0 0.5 0 0.4 0.1 1 0.1z"/>
		</g>
		<g id="c">
			<path id="Layer" fill-rule="evenodd" class="s0" d="m45.8 577.8v1.5h-12.7q0.2 1.9 1.3 2.9 1.2 1 3.4 1 1.7 0 3.5-0.5 1.8-0.6 3.7-1.6v4.2q-2 0.7-3.9 1.1-1.9 0.4-3.8 0.4-4.7 0-7.2-2.4-2.6-2.3-2.6-6.6 0-4.1 2.5-6.5 2.5-2.4 6.9-2.4 4.1 0 6.5 2.4 2.4 2.4 2.4 6.5zm-5.6-1.8q0-1.6-0.9-2.5-0.9-1-2.4-1-1.6 0-2.6 0.9-0.9 0.9-1.2 2.6z"/>
		</g>
		<g id="e">
			<path id="Layer" fill-rule="evenodd" class="s0" d="m65.8 576.6v9.7h-5.5v-2.5q-1.1 1.6-2.4 2.3-1.4 0.7-3.3 0.7-2.7 0-4.3-1.6-1.7-1.5-1.7-4 0-3 2.1-4.4 2-1.4 6.4-1.4h3.2v-0.4q0-1.3-1-1.9-1-0.6-3.2-0.6-1.7 0-3.2 0.4-1.5 0.3-2.8 1v-4.1q1.7-0.5 3.5-0.7 1.8-0.2 3.5-0.2 4.6 0 6.7 1.8 2 1.8 2 5.9zm-8.3 2.1q-1.7 0-2.6 0.6-0.8 0.5-0.8 1.7 0 1 0.7 1.6 0.7 0.6 1.9 0.6 1.5 0 2.6-1.1 1-1.1 1-2.8v-0.6z"/>
		</g>
		<g id="b">
			<path id="Layer" class="s0" d="m76.8 564.5v4.8h5.6v3.9h-5.6v7.2q0 1.2 0.5 1.6 0.5 0.4 1.9 0.4h2.8v3.9h-4.7q-3.2 0-4.6-1.3-1.3-1.4-1.3-4.6v-7.2h-2.7v-3.9h2.7v-4.8z"/>
		</g>
		<g id="c">
			<path id="Layer" fill-rule="evenodd" class="s0" d="m102.7 577.8v1.5h-12.7q0.2 1.9 1.4 2.9 1.2 1 3.3 1 1.7 0 3.5-0.5 1.8-0.6 3.7-1.6v4.2q-1.9 0.7-3.8 1.1-2 0.4-3.9 0.4-4.6 0-7.2-2.4-2.5-2.3-2.5-6.6 0-4.1 2.5-6.5 2.5-2.4 6.9-2.4 4 0 6.4 2.4 2.4 2.4 2.4 6.5zm-5.6-1.8q0-1.6-0.9-2.5-0.9-1-2.3-1-1.6 0-2.6 0.9-1 0.9-1.2 2.6z"/>
		</g>
		<g id="n">
			<path id="Layer" fill-rule="evenodd" class="s0" d="m118.4 571.8v-9.1h5.5v23.6h-5.5v-2.4q-1.1 1.5-2.5 2.2-1.3 0.7-3.1 0.7-3.1 0-5.2-2.5-2-2.5-2-6.5 0-3.9 2-6.4 2.1-2.5 5.2-2.5 1.8 0 3.1 0.7 1.4 0.7 2.5 2.2zm-3.5 11q1.7 0 2.6-1.2 0.9-1.3 0.9-3.8 0-2.4-0.9-3.7-0.9-1.2-2.6-1.2-1.8 0-2.7 1.2-0.9 1.3-0.9 3.7 0 2.5 0.9 3.8 0.9 1.2 2.7 1.2z"/>
		</g>
		<g id="m">
			<path id="Layer" fill-rule="evenodd" class="s0" d="m145.4 571.8q1.1-1.5 2.5-2.2 1.3-0.7 3.1-0.7 3.2 0 5.2 2.5 2 2.5 2 6.4 0 4-2 6.5-2 2.5-5.2 2.5-1.8 0-3.1-0.7-1.4-0.7-2.5-2.2v2.4h-5.4v-23.6h5.4zm3.6 11q1.7 0 2.7-1.3 0.9-1.3 0.9-3.7 0-2.4-0.9-3.7-1-1.3-2.7-1.3-1.7 0-2.7 1.3-0.9 1.3-0.9 3.7 0 2.4 0.9 3.7 1 1.3 2.7 1.3z"/>
		</g>
		<g id="l">
			<path id="Layer" class="s0" d="m160 569.3h5.4l4.6 11.6 3.9-11.6h5.4l-7.1 18.6q-1.1 2.9-2.5 4-1.5 1.1-3.8 1.2h-3.2v-3.6h1.7q1.4 0 2-0.5 0.7-0.4 1-1.5l0.2-0.5z"/>
		</g>
		<g id="k">
			<path id="Layer" class="s0" d="m211.6 585.1q-1.6 0.8-3.4 1.2-1.7 0.5-3.6 0.5-5.7 0-9-3.2-3.3-3.2-3.3-8.6 0-5.4 3.3-8.6 3.3-3.2 9-3.2 1.9 0 3.6 0.5 1.8 0.4 3.4 1.2v4.7q-1.7-1.1-3.2-1.6-1.6-0.5-3.4-0.5-3.1 0-4.9 2-1.8 2-1.8 5.5 0 3.5 1.8 5.5 1.8 2 4.9 2 1.8 0 3.4-0.5 1.5-0.5 3.2-1.6z"/>
		</g>
		<g id="d">
			<path id="Layer" class="s0" d="m228.8 574q-0.7-0.4-1.4-0.5-0.7-0.2-1.4-0.2-2.1 0-3.3 1.3-1.1 1.4-1.1 3.9v7.8h-5.4v-17h5.4v2.8q1-1.7 2.4-2.4 1.4-0.8 3.3-0.8 0.2 0 0.6 0 0.3 0.1 0.9 0.1z"/>
		</g>
		<g id="f">
			<path id="Layer" class="s0" d="m231.5 569.3h5.4v17h-5.4zm0-6.6h5.4v4.4h-5.4z"/>
		</g>
		<g id="j">
			<path id="Layer" class="s0" d="m255.5 569.8v4.2q-1.8-0.7-3.4-1.1-1.6-0.4-3.1-0.4-1.5 0-2.3 0.4-0.7 0.4-0.7 1.2 0 0.7 0.5 1 0.6 0.4 2.1 0.5l0.9 0.2q4.2 0.5 5.7 1.7 1.4 1.2 1.4 3.8 0 2.7-2 4.1-2 1.4-6 1.4-1.7 0-3.5-0.3-1.8-0.3-3.7-0.8v-4.1q1.7 0.8 3.4 1.2 1.7 0.4 3.4 0.4 1.6 0 2.4-0.5 0.8-0.4 0.8-1.3 0-0.7-0.5-1.1-0.6-0.3-2.2-0.5l-1-0.2q-3.6-0.4-5.1-1.6-1.4-1.3-1.4-3.8 0-2.7 1.8-4 1.9-1.3 5.7-1.3 1.5 0 3.2 0.2 1.6 0.3 3.6 0.7z"/>
		</g>
		<g id="b">
			<path id="Layer" class="s0" d="m266.6 564.5v4.8h5.6v3.9h-5.6v7.2q0 1.2 0.5 1.6 0.5 0.4 1.9 0.4h2.8v3.9h-4.7q-3.2 0-4.6-1.3-1.3-1.4-1.3-4.6v-7.2h-2.7v-3.9h2.7v-4.8z"/>
		</g>
		<g id="f">
			<path id="Layer" class="s0" d="m275.6 569.3h5.4v17h-5.4zm0-6.6h5.4v4.4h-5.4z"/>
		</g>
		<g id="e">
			<path id="Layer" fill-rule="evenodd" class="s0" d="m302.2 576.6v9.7h-5.5v-2.5q-1.1 1.6-2.5 2.3-1.3 0.7-3.3 0.7-2.6 0-4.3-1.6-1.6-1.5-1.6-4 0-3 2-4.4 2.1-1.4 6.5-1.4h3.2v-0.4q0-1.3-1-1.9-1.1-0.6-3.2-0.6-1.8 0-3.3 0.4-1.5 0.3-2.8 1v-4.1q1.8-0.5 3.5-0.7 1.8-0.2 3.6-0.2 4.6 0 6.6 1.8 2.1 1.8 2.1 5.9zm-8.3 2.1q-1.8 0-2.6 0.6-0.9 0.5-0.9 1.7 0 1 0.7 1.6 0.7 0.6 2 0.6 1.5 0 2.5-1.1 1.1-1.1 1.1-2.8v-0.6z"/>
		</g>
		<g id="i">
			<path id="Layer" class="s0" d="m324.3 576v10.3h-5.4v-7.9q0-2.2-0.1-3-0.1-0.9-0.4-1.3-0.3-0.5-0.9-0.8-0.5-0.3-1.2-0.3-1.7 0-2.7 1.3-0.9 1.3-0.9 3.7v8.3h-5.5v-17h5.5v2.5q1.2-1.5 2.6-2.2 1.4-0.7 3-0.7 3 0 4.5 1.8 1.5 1.8 1.5 5.3z"/>
		</g>
		<g id="a">
			<path id="Layer" fill-rule="evenodd" class="s0" d="m337.5 568.9q4.3 0 6.8 2.4 2.5 2.3 2.5 6.5 0 4.2-2.5 6.6-2.5 2.4-6.8 2.4-4.4 0-6.9-2.4-2.5-2.4-2.5-6.6 0-4.2 2.5-6.5 2.5-2.4 6.9-2.4zm0 3.9q-1.8 0-2.8 1.3-0.9 1.3-0.9 3.7 0 2.5 0.9 3.8 1 1.3 2.8 1.3 1.7 0 2.7-1.3 0.9-1.3 0.9-3.8 0-2.4-0.9-3.7-1-1.3-2.7-1.3z"/>
		</g>
		<g id="u">
			<path id="Layer" class="s0" d="m360.7 563.7h19.1v3.5l-12.2 14.7h12.5v4.4h-19.7v-3.5l12.1-14.7h-11.8z"/>
		</g>
		<g id="a">
			<path id="Layer" fill-rule="evenodd" class="s0" d="m392.2 568.9q4.4 0 6.9 2.4 2.5 2.3 2.5 6.5 0 4.2-2.5 6.6-2.5 2.4-6.9 2.4-4.4 0-6.9-2.4-2.4-2.4-2.4-6.6 0-4.2 2.4-6.5 2.5-2.4 6.9-2.4zm0 3.9q-1.8 0-2.7 1.3-1 1.3-1 3.7 0 2.5 1 3.8 0.9 1.3 2.7 1.3 1.8 0 2.7-1.3 1-1.3 1-3.8 0-2.4-1-3.7-0.9-1.3-2.7-1.3z"/>
		</g>
		<g id="h">
			<path id="Layer" class="s0" d="m405.3 579.7v-10.4h5.5v1.7q0 1.4 0 3.5 0 2.1 0 2.8 0 2 0.1 2.9 0.1 0.9 0.3 1.4 0.4 0.5 0.9 0.8 0.5 0.3 1.2 0.3 1.7 0 2.7-1.3 1-1.3 1-3.7v-8.4h5.4v17h-5.4v-2.4q-1.2 1.5-2.6 2.2-1.4 0.7-3.1 0.7-2.9 0-4.4-1.8-1.6-1.8-1.6-5.3z"/>
		</g>
		<g id="g">
			<path id="Layer" class="s0" d="m441.4 569.8v4.5q-1.1-0.8-2.2-1.1-1.1-0.4-2.3-0.4-2.3 0-3.6 1.3-1.3 1.4-1.3 3.7 0 2.4 1.3 3.8 1.3 1.3 3.6 1.3 1.2 0 2.4-0.4 1.1-0.4 2.1-1.1v4.4q-1.3 0.5-2.6 0.7-1.3 0.3-2.6 0.3-4.6 0-7.2-2.4-2.6-2.3-2.6-6.6 0-4.2 2.6-6.5 2.6-2.4 7.2-2.4 1.3 0 2.6 0.2 1.3 0.3 2.6 0.7z"/>
		</g>
		<g id="e">
			<path id="Layer" fill-rule="evenodd" class="s0" d="m462 576.6v9.7h-5.5v-2.5q-1.1 1.6-2.4 2.3-1.4 0.7-3.3 0.7-2.7 0-4.3-1.6-1.7-1.5-1.7-4 0-3 2.1-4.4 2-1.4 6.4-1.4h3.2v-0.4q0-1.3-1-1.9-1-0.6-3.1-0.6-1.8 0-3.3 0.4-1.5 0.3-2.8 1v-4.1q1.8-0.5 3.5-0.7 1.8-0.2 3.5-0.2 4.6 0 6.7 1.8 2 1.8 2 5.9zm-8.3 2.1q-1.7 0-2.5 0.6-0.9 0.5-0.9 1.7 0 1 0.7 1.6 0.7 0.6 1.9 0.6 1.6 0 2.6-1.1 1-1.1 1-2.8v-0.6z"/>
		</g>
		<g id="j">
			<path id="Layer" class="s0" d="m480.4 569.8v4.2q-1.8-0.7-3.4-1.1-1.6-0.4-3.1-0.4-1.5 0-2.3 0.4-0.7 0.4-0.7 1.2 0 0.7 0.5 1 0.6 0.4 2.1 0.5l1 0.2q4.1 0.5 5.6 1.7 1.4 1.2 1.4 3.8 0 2.7-2 4.1-2 1.4-6 1.4-1.6 0-3.5-0.3-1.8-0.3-3.6-0.8v-4.1q1.6 0.8 3.3 1.2 1.7 0.4 3.5 0.4 1.5 0 2.3-0.5 0.9-0.4 0.9-1.3 0-0.7-0.6-1.1-0.6-0.3-2.2-0.5l-1-0.2q-3.6-0.4-5.1-1.6-1.4-1.3-1.4-3.8 0-2.7 1.8-4 1.9-1.3 5.7-1.3 1.5 0 3.2 0.2 1.6 0.3 3.6 0.7z"/>
		</g>
		<g id="t">
			<path id="Layer" class="s0" d="m1.8 593.8v3.6h-3q-1.2 0-1.6 0.4-0.5 0.4-0.5 1.4v1.2h4.7v3.9h-4.7v13.1h-5.4v-13.1h-2.7v-3.9h2.7v-1.2q0-2.7 1.5-4.1 1.6-1.3 4.8-1.3z"/>
		</g>
		<g id="d">
			<path id="Layer" class="s0" d="m16.8 605.1q-0.7-0.4-1.4-0.5-0.7-0.2-1.5-0.2-2.1 0-3.2 1.4-1.1 1.3-1.1 3.8v7.8h-5.5v-17h5.5v2.8q1-1.6 2.4-2.4 1.3-0.8 3.3-0.8 0.2 0 0.5 0.1 0.4 0 1 0z"/>
		</g>
		<g id="a">
			<path id="Layer" fill-rule="evenodd" class="s0" d="m27.6 600q4.4 0 6.8 2.4 2.5 2.4 2.5 6.6 0 4.2-2.5 6.5-2.4 2.4-6.8 2.4-4.4 0-6.9-2.4-2.5-2.3-2.5-6.5 0-4.2 2.5-6.6 2.5-2.4 6.9-2.4zm0 3.9q-1.8 0-2.8 1.3-0.9 1.3-0.9 3.8 0 2.4 0.9 3.7 1 1.3 2.8 1.3 1.8 0 2.7-1.3 1-1.3 1-3.7 0-2.5-1-3.8-0.9-1.3-2.7-1.3z"/>
		</g>
		<g id="s">
			<path id="Layer" class="s0" d="m56.6 603.3q1.1-1.6 2.5-2.4 1.4-0.9 3.1-0.9 2.9 0 4.5 1.8 1.5 1.8 1.5 5.3v10.3h-5.5v-8.8q0-0.2 0-0.4 0.1-0.3 0.1-0.6 0-1.9-0.6-2.7-0.5-0.8-1.7-0.8-1.5 0-2.4 1.3-0.8 1.3-0.9 3.7v8.3h-5.4v-8.8q0-2.9-0.5-3.7-0.5-0.8-1.7-0.8-1.6 0-2.5 1.3-0.8 1.3-0.8 3.7v8.3h-5.5v-17h5.5v2.5q1-1.4 2.3-2.1 1.3-0.8 2.9-0.8 1.7 0 3.1 0.9 1.3 0.8 2 2.4z"/>
		</g>
		<g id="b">
			<path id="Layer" class="s0" d="m90 595.6v4.8h5.7v3.9h-5.7v7.2q0 1.2 0.5 1.6 0.5 0.5 1.9 0.5h2.8v3.8h-4.7q-3.2 0-4.5-1.3-1.4-1.3-1.4-4.6v-7.2h-2.7v-3.9h2.7v-4.8z"/>
		</g>
		<g id="r">
			<path id="Layer" class="s0" d="m116.1 607.1v10.3h-5.5v-7.9q0-2.2-0.1-3-0.1-0.8-0.3-1.3-0.3-0.5-0.9-0.8-0.5-0.3-1.2-0.3-1.7 0-2.7 1.3-1 1.4-1 3.7v8.3h-5.4v-23.6h5.4v9.1q1.2-1.5 2.6-2.2 1.4-0.7 3.1-0.7 2.9 0 4.5 1.8 1.5 1.8 1.5 5.3z"/>
		</g>
		<g id="c">
			<path id="Layer" fill-rule="evenodd" class="s0" d="m138.1 608.9v1.5h-12.7q0.2 2 1.4 2.9 1.2 1 3.3 1 1.7 0 3.5-0.5 1.8-0.5 3.7-1.6v4.2q-1.9 0.8-3.9 1.1-1.9 0.4-3.8 0.4-4.6 0-7.2-2.4-2.5-2.3-2.5-6.5 0-4.2 2.5-6.6 2.5-2.4 6.9-2.4 4 0 6.4 2.4 2.4 2.5 2.4 6.5zm-5.6-1.8q0-1.6-0.9-2.5-0.9-1-2.3-1-1.6 0-2.6 0.9-1 0.9-1.2 2.6z"/>
		</g>
		<g id="q">
			<path id="Layer" class="s0" d="m153.3 594.8h6.5l8.3 15.5v-15.5h5.5v22.6h-6.5l-8.2-15.5v15.5h-5.6z"/>
		</g>
		<g id="a">
			<path id="Layer" fill-rule="evenodd" class="s0" d="m187.2 600q4.4 0 6.9 2.4 2.4 2.4 2.4 6.6 0 4.2-2.4 6.5-2.5 2.4-6.9 2.4-4.4 0-6.9-2.4-2.5-2.3-2.5-6.5 0-4.2 2.5-6.6 2.5-2.4 6.9-2.4zm0 3.9q-1.8 0-2.8 1.3-0.9 1.3-0.9 3.8 0 2.4 0.9 3.7 1 1.3 2.8 1.3 1.8 0 2.7-1.3 1-1.3 1-3.7 0-2.5-1-3.8-0.9-1.3-2.7-1.3z"/>
		</g>
		<g id="h">
			<path id="Layer" class="s0" d="m200.3 610.8v-10.4h5.5v1.7q0 1.4 0 3.5-0.1 2.1-0.1 2.8 0 2 0.1 3 0.1 0.9 0.4 1.3 0.3 0.5 0.9 0.8 0.5 0.3 1.2 0.3 1.7 0 2.7-1.3 1-1.3 1-3.7v-8.4h5.4v17h-5.4v-2.4q-1.3 1.5-2.7 2.2-1.3 0.7-3 0.7-2.9 0-4.5-1.8-1.5-1.8-1.5-5.3z"/>
		</g>
		<g id="i">
			<path id="Layer" class="s0" d="m239.7 607.1v10.3h-5.4v-7.9q0-2.2-0.1-3-0.1-0.8-0.4-1.3-0.3-0.5-0.9-0.8-0.5-0.3-1.2-0.3-1.7 0-2.7 1.3-0.9 1.4-0.9 3.7v8.3h-5.5v-17h5.5v2.5q1.2-1.5 2.6-2.2 1.4-0.7 3-0.7 3 0 4.5 1.8 1.5 1.8 1.5 5.3z"/>
		</g>
		<g id="p">
			<path id="Layer" fill-rule="evenodd" class="s0" d="m255.9 594.8h9.7q4.3 0 6.6 1.9 2.3 1.9 2.3 5.5 0 3.5-2.3 5.4-2.3 2-6.6 2h-3.9v7.8h-5.8zm5.8 4.3v6.3h3.2q1.7 0 2.7-0.8 0.9-0.8 0.9-2.4 0-1.5-0.9-2.3-1-0.8-2.7-0.8z"/>
		</g>
		<g id="d">
			<path id="Layer" class="s0" d="m291 605.1q-0.7-0.4-1.4-0.5-0.7-0.2-1.4-0.2-2.1 0-3.2 1.4-1.2 1.3-1.2 3.8v7.8h-5.4v-17h5.4v2.8q1.1-1.6 2.4-2.4 1.4-0.8 3.3-0.8 0.3 0 0.6 0.1 0.3 0 0.9 0z"/>
		</g>
		<g id="a">
			<path id="Layer" fill-rule="evenodd" class="s0" d="m301.8 600q4.4 0 6.9 2.4 2.5 2.4 2.5 6.6 0 4.2-2.5 6.5-2.5 2.4-6.9 2.4-4.4 0-6.9-2.4-2.4-2.3-2.4-6.5 0-4.2 2.4-6.6 2.5-2.4 6.9-2.4zm0 3.9q-1.8 0-2.7 1.3-1 1.3-1 3.8 0 2.4 1 3.7 0.9 1.3 2.7 1.3 1.8 0 2.8-1.3 0.9-1.3 0.9-3.7 0-2.5-0.9-3.8-1-1.3-2.8-1.3z"/>
		</g>
		<g id="o">
			<path id="Layer" class="s0" d="m315.1 600.4h5.5v16.7q0 3.5-1.7 5.3-1.6 1.8-4.7 1.8h-2.7v-3.6h0.9q1.6 0 2.1-0.7 0.6-0.7 0.6-2.8zm0-6.6h5.5v4.5h-5.5z"/>
		</g>
		<g id="c">
			<path id="Layer" fill-rule="evenodd" class="s0" d="m342.8 608.9v1.5h-12.8q0.2 2 1.4 2.9 1.2 1 3.3 1 1.8 0 3.6-0.5 1.8-0.5 3.7-1.6v4.2q-2 0.8-3.9 1.1-1.9 0.4-3.9 0.4-4.6 0-7.1-2.4-2.6-2.3-2.6-6.5 0-4.2 2.5-6.6 2.5-2.4 6.9-2.4 4.1 0 6.5 2.4 2.4 2.5 2.4 6.5zm-5.6-1.8q0-1.6-0.9-2.5-0.9-1-2.4-1-1.6 0-2.6 0.9-0.9 0.9-1.2 2.6z"/>
		</g>
		<g id="g">
			<path id="Layer" class="s0" d="m360.6 601v4.4q-1.1-0.8-2.2-1.1-1.1-0.4-2.3-0.4-2.3 0-3.6 1.3-1.2 1.4-1.2 3.8 0 2.3 1.2 3.7 1.3 1.3 3.6 1.3 1.3 0 2.4-0.4 1.2-0.4 2.1-1.1v4.4q-1.2 0.5-2.6 0.7-1.3 0.3-2.6 0.3-4.6 0-7.2-2.4-2.6-2.3-2.6-6.5 0-4.3 2.6-6.6 2.6-2.4 7.2-2.4 1.3 0 2.6 0.3 1.3 0.2 2.6 0.7z"/>
		</g>
		<g id="b">
			<path id="Layer" class="s0" d="m371.3 595.6v4.8h5.6v3.9h-5.6v7.2q0 1.2 0.4 1.6 0.5 0.5 1.9 0.5h2.8v3.8h-4.7q-3.2 0-4.5-1.3-1.4-1.3-1.4-4.6v-7.2h-2.7v-3.9h2.7v-4.8z"/>
		</g>
	</g>
</svg>